<?xml version="1.0" encoding="UTF-8" standalone="no"?>
<svg
   width="800"
   height="600"
   id="svg2"
   version="1.1"
   inkscape:version="1.1 (c68e22c387, 2021-05-23)"
   sodipodi:docname="slide1.svg"
   inkscape:export-filename="/home/se7en/home-paste/nox.png"
   inkscape:export-xdpi="90.005646"
   inkscape:export-ydpi="90.005646"
   viewBox="0 0 800 600"
   xmlns:inkscape="http://www.inkscape.org/namespaces/inkscape"
   xmlns:sodipodi="http://sodipodi.sourceforge.net/DTD/sodipodi-0.dtd"
   xmlns:xlink="http://www.w3.org/1999/xlink"
   xmlns="http://www.w3.org/2000/svg"
   xmlns:svg="http://www.w3.org/2000/svg"
   xmlns:rdf="http://www.w3.org/1999/02/22-rdf-syntax-ns#"
   xmlns:cc="http://creativecommons.org/ns#"
   xmlns:dc="http://purl.org/dc/elements/1.1/">
  <title
     id="title2687">siduction-noX</title>
  <defs
     id="defs4">
    <clipPath
       id="clipPath3538"
       clipPathUnits="userSpaceOnUse">
      <rect
         y="476.25256"
         x="230.04202"
         height="76.848099"
         width="353.09943"
         id="rect3540"
         style="opacity:0.4813084;fill:#000000;fill-opacity:1;stroke:none" />
    </clipPath>
    <filter
       style="color-interpolation-filters:sRGB"
       id="filter2673-1-5"
       inkscape:label="Metal Casting"
       inkscape:menu="Bevels"
       inkscape:menu-tooltip="Smooth drop-like bevel with metallic finish"
       x="-inf"
       y="-inf"
       width="inf"
       height="inf">
      <feColorMatrix
         id="feColorMatrix2675-7-2"
         values="0.37"
         type="saturate"
         in="SourceGraphic"
         result="result1" />
      <feGaussianBlur
         id="feGaussianBlur2677-8-7"
         stdDeviation="7"
         in="SourceAlpha" />
      <feSpecularLighting
         id="feSpecularLighting2679-9-6"
         specularExponent="8"
         specularConstant="3.88000011"
         surfaceScale="10"
         result="result2">
        <feDistantLight
           id="feDistantLight2681-8-5"
           azimuth="225"
           elevation="17" />
      </feSpecularLighting>
      <feComposite
         id="feComposite2683-7-9"
         in2="result1"
         operator="atop" />
    </filter>
    <filter
       y="-0.11102392"
       x="-0.011300862"
       height="1.1893937"
       width="1.0273104"
       inkscape:label="Drop shadow"
       id="filter8554-99-02-3-7-6"
       style="color-interpolation-filters:sRGB">
      <feGaussianBlur
         result="blur"
         stdDeviation="1"
         in="SourceAlpha"
         id="feGaussianBlur8556-3-0-6-7-5-0" />
      <feColorMatrix
         values="-1 0 0 0 1 0 -1 0 0 1 0 0 -1 0 1 0 0 0 0.5 0 "
         type="matrix"
         result="bluralpha"
         id="feColorMatrix8558-6-1-1-3-3" />
      <feOffset
         result="offsetBlur"
         dy="-1"
         dx="1"
         in="bluralpha"
         id="feOffset8560-0-9-0-9-9-3" />
      <feMerge
         id="feMerge8562-5-62-6-0-0">
        <feMergeNode
           in="offsetBlur"
           id="feMergeNode8564-0-1-3-3-3" />
        <feMergeNode
           in="SourceGraphic"
           id="feMergeNode8566-2-20-2-9-3" />
      </feMerge>
    </filter>
    <linearGradient
       id="linearGradient6147-1-1-4-4-7-0-6-2">
      <stop
         id="stop6149-6-3-9-3-3-6-7-2"
         offset="0"
         style="stop-color:#5f8dd3;stop-opacity:1;" />
      <stop
         id="stop6151-5-0-9-5-1-1-4-4"
         offset="1"
         style="stop-color:#162d50;stop-opacity:1;" />
    </linearGradient>
    <linearGradient
       id="linearGradient6147-1-1-5-94-7-1-5-3-5">
      <stop
         id="stop6149-6-3-5-2-4-9-5-2-6"
         offset="0"
         style="stop-color:#5f8dd3;stop-opacity:1;" />
      <stop
         id="stop6151-5-0-3-06-3-0-4-0-6"
         offset="1"
         style="stop-color:#162d50;stop-opacity:1;" />
    </linearGradient>
    <linearGradient
       id="linearGradient6147-1-1-0-9-4-5-7-2-1">
      <stop
         id="stop6149-6-3-3-5-6-6-6-2-1"
         offset="0"
         style="stop-color:#5f8dd3;stop-opacity:1;" />
      <stop
         id="stop6151-5-0-36-6-9-7-5-6-0"
         offset="1"
         style="stop-color:#162d50;stop-opacity:1;" />
    </linearGradient>
    <linearGradient
       id="linearGradient6147-1-1-5-3-14-2-7-6-8-6-6">
      <stop
         id="stop6149-6-3-5-0-3-2-4-9-1-8"
         offset="0"
         style="stop-color:#5f8dd3;stop-opacity:1;" />
      <stop
         id="stop6151-5-0-3-0-7-6-0-3-4-5"
         offset="1"
         style="stop-color:#162d50;stop-opacity:1;" />
    </linearGradient>
    <linearGradient
       id="linearGradient6147-1-1-0-5-7-1-64-7-8-6">
      <stop
         id="stop6149-6-3-3-1-3-2-7-4-7-9-0"
         offset="0"
         style="stop-color:#5f8dd3;stop-opacity:1;" />
      <stop
         id="stop6151-5-0-36-1-39-8-4-5-3-7"
         offset="1"
         style="stop-color:#162d50;stop-opacity:1;" />
    </linearGradient>
    <linearGradient
       id="linearGradient6147-1-1-0-2-4-9-8-2-5-2">
      <stop
         id="stop6149-6-3-3-4-4-28-5-5-0-1"
         offset="0"
         style="stop-color:#5f8dd3;stop-opacity:1;" />
      <stop
         id="stop6151-5-0-36-9-49-8-8-4-2-7"
         offset="1"
         style="stop-color:#162d50;stop-opacity:1;" />
    </linearGradient>
    <linearGradient
       id="linearGradient6147-1-1-5-3-1-3-6-2-7-2-7">
      <stop
         id="stop6149-6-3-5-0-7-8-8-6-4-7-5"
         offset="0"
         style="stop-color:#5f8dd3;stop-opacity:1;" />
      <stop
         id="stop6151-5-0-3-0-2-32-3-0-4-7-9"
         offset="1"
         style="stop-color:#162d50;stop-opacity:1;" />
    </linearGradient>
    <linearGradient
       id="linearGradient6147-1-1-0-5-6-5-3-6-3-4-8">
      <stop
         id="stop6149-6-3-3-1-1-4-3-6-0-1-3"
         offset="0"
         style="stop-color:#5f8dd3;stop-opacity:1;" />
      <stop
         id="stop6151-5-0-36-1-5-3-3-4-7-7-3"
         offset="1"
         style="stop-color:#162d50;stop-opacity:1;" />
    </linearGradient>
    <linearGradient
       id="linearGradient6147-1-1-5-3-1-8-4-0-6-8-4-4">
      <stop
         id="stop6149-6-3-5-0-7-1-9-4-2-6-8-7-3"
         offset="0"
         style="stop-color:#5f8dd3;stop-opacity:1;" />
      <stop
         id="stop6151-5-0-3-0-2-3-5-7-8-8-0-7"
         offset="1"
         style="stop-color:#162d50;stop-opacity:1;" />
    </linearGradient>
    <rect
       x="107.4665"
       y="980.4942"
       width="473.64899"
       height="48.259987"
       id="rect8162-3" />
  </defs>
  <sodipodi:namedview
     id="base"
     pagecolor="#ffffff"
     bordercolor="#666666"
     borderopacity="1.0"
     inkscape:pageopacity="0.0"
     inkscape:pageshadow="2"
     inkscape:zoom="1.5125433"
     inkscape:cx="208.91964"
     inkscape:cy="413.87246"
     inkscape:document-units="px"
     inkscape:current-layer="layer1"
     showgrid="false"
     inkscape:window-width="1440"
     inkscape:window-height="851"
     inkscape:window-x="0"
     inkscape:window-y="24"
     inkscape:window-maximized="1"
     width="0px"
     height="0px"
     fit-margin-top="0"
     fit-margin-left="0"
     fit-margin-right="0"
     fit-margin-bottom="0"
     borderlayer="true"
     showguides="true"
     inkscape:guide-bbox="true"
     inkscape:snap-bbox="true"
     inkscape:bbox-paths="true"
     inkscape:snap-bbox-edge-midpoints="false"
     inkscape:snap-bbox-midpoints="false"
     inkscape:bbox-nodes="true"
     inkscape:snap-page="true"
     inkscape:document-rotation="0"
     inkscape:pagecheckerboard="0">
    <sodipodi:guide
       orientation="0,1"
       position="-4.9999988,599.99999"
       id="guide9388"
       inkscape:locked="false" />
    <sodipodi:guide
       orientation="1,0"
       position="-4.9999988,599.99999"
       id="guide9390"
       inkscape:locked="false" />
    <sodipodi:guide
       orientation="1,0"
       position="805,-2.4999503"
       id="guide9399"
       inkscape:locked="false" />
    <sodipodi:guide
       orientation="0,1"
       position="810,-19.99995"
       id="guide9401"
       inkscape:locked="false" />
    <sodipodi:guide
       orientation="0,1"
       position="1.2109375e-06,604.99999"
       id="guide13870"
       inkscape:locked="false" />
    <sodipodi:guide
       orientation="1,0"
       position="0,570.87883"
       id="guide13872"
       inkscape:locked="false" />
    <sodipodi:guide
       orientation="0,1"
       position="-2.4999988,4.9726562e-05"
       id="guide13874"
       inkscape:locked="false" />
    <sodipodi:guide
       orientation="0,1"
       position="-4.9999988,-4.9999503"
       id="guide13876"
       inkscape:locked="false" />
    <sodipodi:guide
       orientation="1,0"
       position="800,-4.9999503"
       id="guide13878"
       inkscape:locked="false" />
    <sodipodi:guide
       orientation="1,0"
       position="784.92643,88.818754"
       id="guide3817"
       inkscape:locked="false" />
    <sodipodi:guide
       orientation="0,1"
       position="777.93894,554.99999"
       id="guide3819"
       inkscape:locked="false" />
    <sodipodi:guide
       orientation="0,1"
       position="526.93511,74.963311"
       id="guide250"
       inkscape:locked="false" />
    <sodipodi:guide
       orientation="1,0"
       position="40.000001,624.99999"
       id="guide252"
       inkscape:locked="false" />
    <sodipodi:guide
       orientation="1,0"
       position="-200.30764,260.28347"
       id="guide3253"
       inkscape:locked="false" />
  </sodipodi:namedview>
  <metadata
     id="metadata7">
    <rdf:RDF>
      <cc:Work
         rdf:about="">
        <dc:format>image/svg+xml</dc:format>
        <dc:type
           rdf:resource="http://purl.org/dc/dcmitype/StillImage" />
        <dc:title>siduction-noX</dc:title>
        <dc:date>2012-10-13</dc:date>
        <dc:creator>
          <cc:Agent>
            <dc:title>Sven Strohmeier</dc:title>
          </cc:Agent>
        </dc:creator>
        <dc:rights>
          <cc:Agent>
            <dc:title>Sven Strohmeier</dc:title>
          </cc:Agent>
        </dc:rights>
        <dc:publisher>
          <cc:Agent>
            <dc:title>Sven Strohmeier</dc:title>
          </cc:Agent>
        </dc:publisher>
        <dc:subject>
          <rdf:Bag>
            <rdf:li>gfx</rdf:li>
          </rdf:Bag>
        </dc:subject>
        <dc:description>Wallpaper for siduction

This work is published under the WTFPL</dc:description>
        <dc:contributor>
          <cc:Agent>
            <dc:title>Sven Strohmeier {se7enelven at gmail dot com}
Hendrik Lehmbruch {hlehmbruch at gmx dot net}
Alexander Weber {xweber.alex at googlemail dot com}
Tom Wroblewski {GoinEasy9 at linux dot com}
Markus Meyer {coruja at siduction dot org}</dc:title>
          </cc:Agent>
        </dc:contributor>
        <cc:license
           rdf:resource="http://sam.zoy.org/wtfpl/    " />
      </cc:Work>
    </rdf:RDF>
  </metadata>
  <g
     inkscape:label="Layer 1"
     inkscape:groupmode="layer"
     id="layer1"
     transform="translate(587.95276,-726.18108)">
    <text
       xml:space="preserve"
       style="font-style:normal;font-variant:normal;font-weight:normal;font-stretch:normal;line-height:0%;font-family:sans-serif;-inkscape-font-specification:Sans;text-align:center;letter-spacing:0px;word-spacing:0px;writing-mode:lr-tb;text-anchor:middle;fill:#e61919;fill-opacity:1;stroke:none"
       x="566.99707"
       y="691.00446"
       id="text2399-6"
       transform="matrix(0.7895518,0.62444279,-0.61623404,0.77917257,0,0)"><tspan
         sodipodi:role="line"
         id="tspan2401-6"
         x="566.99707"
         y="691.00446"
         style="font-style:normal;font-variant:normal;font-weight:bold;font-stretch:normal;font-size:30.2205px;line-height:125%;font-family:sans-serif;-inkscape-font-specification:'Sans Bold';text-align:center;writing-mode:lr-tb;text-anchor:middle">Release Candidate</tspan><tspan
         sodipodi:role="line"
         x="571.80017"
         y="728.78009"
         style="font-style:normal;font-variant:normal;font-weight:normal;font-stretch:normal;font-size:30.2205px;line-height:125%;font-family:sans-serif;-inkscape-font-specification:Sans;text-align:center;writing-mode:lr-tb;text-anchor:middle"
         id="tspan9905"> </tspan></text>
    <image
       xlink:href="background.jpg"
       preserveAspectRatio="none"
       width="975.99988"
       height="609.99994"
       id="image12629"
       x="-592.95276"
       y="721.18109" />
    <g
       transform="translate(-463.31192,60.251364)"
       id="layer1-4"
       inkscape:label="Layer 1">
      <g
         transform="matrix(0.71176202,0,0,0.69059463,-161.19052,664.92927)"
         clip-path="url(#clipPath3538)"
         id="g3506">
        <g
           inkscape:export-ydpi="89"
           inkscape:export-xdpi="89"
           inkscape:export-filename="/home/coruja/siduction/artwork/coruja.web.header.png"
           id="g6886-9-9"
           style="display:inline"
           transform="matrix(1.1785216,0,0,1.1829341,-1393.5471,-667.09574)" />
      </g>
    </g>
    <text
       xml:space="preserve"
       style="font-style:normal;font-variant:normal;font-weight:normal;font-stretch:normal;line-height:0%;font-family:sans-serif;-inkscape-font-specification:Sans;text-align:start;letter-spacing:0px;word-spacing:0px;writing-mode:lr-tb;text-anchor:start;fill:#999999;fill-opacity:1;stroke:none;filter:url(#filter2673-1-5)"
       x="-807.99683"
       y="854.18756"
       id="text2399-3"
       transform="matrix(0.50357273,0,0,0.49695292,-363.60649,815.0816)"><tspan
         sodipodi:role="line"
         id="tspan2401-9"
         x="-807.99683"
         y="854.18756"
         style="font-size:74.8773px;line-height:1.25;font-family:sans-serif"> </tspan></text>
    <rect
       style="fill:#ff6600;fill-opacity:1"
       id="rect12621-3-8"
       width="5.0000014"
       height="4.9999504"
       x="212.04724"
       y="721.18109" />
    <rect
       style="fill:#ff6600;fill-opacity:1"
       id="rect12621-3"
       width="5.0000014"
       height="4.9999504"
       x="212.04724"
       y="1326.181" />
    <rect
       style="fill:#ff6600;fill-opacity:1"
       id="rect12621-3-0"
       width="5.0000014"
       height="4.9999504"
       x="-592.95276"
       y="1326.181" />
    <rect
       style="fill:#ff6600;fill-opacity:1"
       id="rect12621-3-6"
       width="5.0000014"
       height="4.9999504"
       x="-592.95276"
       y="721.18115" />
    <rect
       y="-587.95276"
       x="-721.18109"
       height="20"
       width="20"
       id="rect12621-3-7-0-6"
       style="fill:#ff6600;fill-opacity:1"
       transform="rotate(-90)" />
    <rect
       style="fill:#6f7c91;fill-opacity:1"
       id="rect152"
       width="20"
       height="20"
       x="-721.18109"
       y="-567.95276"
       transform="rotate(-90)" />
    <rect
       y="-527.95276"
       x="-721.18109"
       height="20"
       width="20"
       id="rect156"
       style="fill:#162d50;fill-opacity:1"
       transform="rotate(-90)" />
    <rect
       style="fill:#000000;fill-opacity:1"
       id="rect158"
       width="20"
       height="20"
       x="-721.18109"
       y="-507.95276"
       transform="rotate(-90)" />
    <rect
       transform="rotate(-90)"
       y="-547.95276"
       x="-721.18109"
       height="20"
       width="20"
       id="rect157"
       style="fill:#566182;fill-opacity:1" />
    <g
       id="g770"
       transform="translate(4.208485,4.7896035)">
      <g
         style="fill:#dfdbd2;fill-opacity:1;stroke:none;stroke-opacity:1"
         inkscape:export-ydpi="90"
         inkscape:export-xdpi="90"
         inkscape:export-filename="/home/xweber/src/siduction/artwork-newsid/candidates/document/ec-dots.png"
         id="g5199-50-5-8-3-5-9-5-7-6-0-6-6-3-4-0-2-3-24-8-0-1-1-3-6-9"
         transform="matrix(0.55504479,0,0,0.5405544,-137.72509,1111.6653)">
        <path
           inkscape:connector-curvature="0"
           id="path3617-6-5-3-1-8-1-3-1-36-1-6-8-3-7-1-8-2-7-12-8-7-5-6-8-9"
           style="font-style:normal;font-variant:normal;font-weight:normal;font-stretch:normal;font-size:268.141px;line-height:125%;font-family:Axaxax;-inkscape-font-specification:Axaxax;letter-spacing:0px;word-spacing:0px;fill:#dfdbd2;fill-opacity:1;stroke:none;stroke-opacity:1"
           d="m 180.33853,201.32472 q 10.66976,0 15.41187,2.37107 4.7421,2.37104 4.7421,7.62125 0,1.94764 -1.60893,2.79444 -1.52424,0.76213 -3.64127,0.76213 -2.20168,0 -3.81061,-0.9315 -1.60894,-0.93147 -1.60894,-2.62507 0,-0.76214 -1.86297,-1.60894 -1.86297,-0.8468 -6.68978,-0.8468 -3.21784,0 -5.16551,0.25403 -1.94763,0.25404 -3.0485,0.67744 -1.10084,0.33873 -1.43957,0.9315 -0.3387,0.50807 -0.3387,1.01617 0,0.67743 0.3387,1.2702 0.33873,0.59277 1.3549,1.01617 1.01617,0.33873 2.79444,0.59277 1.7783,0.16936 4.65744,0.16936 5.67361,0 9.56892,0.67744 3.89531,0.59277 6.26634,1.94764 2.37107,1.3549 3.38724,3.5566 1.01617,2.11701 1.01617,5.16551 0,2.28637 -1.43957,4.23404 -1.43957,1.86297 -4.14937,3.30254 -2.62507,1.35487 -6.35101,2.11701 -3.72598,0.76213 -8.21402,0.76213 -4.23404,0 -7.95998,-0.59277 -3.64127,-0.59276 -6.35105,-1.7783 -2.70977,-1.18553 -4.3187,-2.96381 -1.60894,-1.86297 -1.60894,-4.4034 0,-2.11701 1.60894,-3.21784 1.6936,-1.18554 3.97997,-1.18554 2.03234,0 3.55657,1.10084 1.52427,1.01617 1.52427,3.0485 0,0.67744 2.03234,1.35491 2.03234,0.67743 7.11315,0.67743 5.58894,0 7.79061,-0.8468 2.2864,-0.8468 2.2864,-2.28637 0,-0.76214 -0.42343,-1.3549 -0.4234,-0.59277 -1.52423,-1.01617 -1.10084,-0.4234 -2.96381,-0.59277 -1.86297,-0.25403 -4.74211,-0.25403 -4.40341,0 -8.04468,-0.59277 -3.55657,-0.67744 -6.18168,-1.94764 -2.5404,-1.3549 -3.97997,-3.30257 -1.3549,-2.03231 -1.3549,-4.82678 0,-2.28637 0.8468,-4.14934 0.8468,-1.86297 3.0485,-3.21787 2.20171,-1.3549 5.92765,-2.11701 3.72594,-0.76213 9.56891,-0.76213 z"
           inkscape:export-filename="/home/xweber/daten/siduction/text_plus_symbol_as_bit1.png"
           inkscape:export-xdpi="150"
           inkscape:export-ydpi="150" />
        <path
           inkscape:connector-curvature="0"
           id="path3619-5-0-8-8-4-4-7-6-0-7-2-3-9-7-5-4-6-4-8-1-2-9-4-7-4"
           style="font-style:normal;font-variant:normal;font-weight:normal;font-stretch:normal;font-size:268.141px;line-height:125%;font-family:Axaxax;-inkscape-font-specification:Axaxax;letter-spacing:0px;word-spacing:0px;fill:#dfdbd2;fill-opacity:1;stroke:none;stroke-opacity:1"
           d="m 211.34486,190.23157 q 2.20167,0 3.72594,1.18553 1.60893,1.10084 1.60893,3.04851 v 1.86297 q 0,2.117 -1.60893,3.21784 -1.52427,1.10087 -3.72594,1.10087 -2.28641,0 -3.81064,-1.18554 -1.52424,-1.18553 -1.52424,-3.13317 v -1.86297 q 0,-1.77831 1.43957,-2.96384 1.43957,-1.2702 3.89531,-1.2702 z m 0,13.29485 q 2.20167,0 3.72594,1.10084 1.60893,1.10084 1.60893,3.21787 v 23.79525 q 0,2.03233 -1.60893,3.21784 -1.52427,1.10086 -3.72594,1.10086 -2.45574,0 -3.89531,-1.2702 -1.43957,-1.27023 -1.43957,-3.0485 v -23.79525 q 0,-1.94767 1.52424,-3.13317 1.52423,-1.18554 3.81064,-1.18554 z"
           inkscape:export-filename="/home/xweber/daten/siduction/text_plus_symbol_as_bit1.png"
           inkscape:export-xdpi="150"
           inkscape:export-ydpi="150" />
        <path
           inkscape:connector-curvature="0"
           id="path3621-0-7-7-0-0-3-6-4-4-7-9-2-0-0-8-3-0-7-9-2-4-7-7-9-5"
           style="font-style:normal;font-variant:normal;font-weight:normal;font-stretch:normal;font-size:268.141px;line-height:125%;font-family:Axaxax;-inkscape-font-specification:Axaxax;letter-spacing:0px;word-spacing:0px;fill:#dfdbd2;fill-opacity:1;stroke:none;stroke-opacity:1"
           d="m 256.46897,190.23157 q 2.45574,0 3.89531,1.2702 1.43957,1.18553 1.43957,2.96384 v 37.25943 q 0,4.23404 -5.25021,4.23404 h -14.98846 q -10.16166,0 -14.98846,-2.70977 -4.82678,-2.7098 -4.82678,-8.21401 v -12.44806 q 0,-10.66975 18.46037,-10.66975 h 3.3872 q 2.54041,0 3.89531,1.2702 1.43957,1.18554 1.43957,2.96384 0,1.94764 -1.52424,3.13317 -1.52427,1.18554 -3.81064,1.18554 h -3.3872 q -7.79062,0 -7.79062,3.64124 v 8.97615 q 0,2.2017 2.20167,3.30254 2.20171,1.01617 7.02852,1.01617 h 9.48421 v -32.94073 q 0,-1.94767 1.60894,-3.04851 1.6089,-1.18553 3.72594,-1.18553 z"
           inkscape:export-filename="/home/xweber/daten/siduction/text_plus_symbol_as_bit1.png"
           inkscape:export-xdpi="150"
           inkscape:export-ydpi="150" />
        <path
           inkscape:connector-curvature="0"
           id="path3623-8-3-3-1-8-6-9-9-4-8-7-3-4-7-0-1-6-5-3-2-1-0-9-0-1"
           style="font-style:normal;font-variant:normal;font-weight:normal;font-stretch:normal;font-size:268.141px;line-height:125%;font-family:Axaxax;-inkscape-font-specification:Axaxax;letter-spacing:0px;word-spacing:0px;fill:#dfdbd2;fill-opacity:1;stroke:none;stroke-opacity:1"
           d="m 287.11275,235.95908 q -20.23867,0 -20.23867,-11.68592 v -17.9523 q 0,-2.117 1.52427,-3.21784 1.6089,-1.18553 3.8106,-1.18553 2.11701,0 3.72595,1.18553 1.60893,1.10084 1.60893,3.21784 v 16.85143 q 0,4.23405 9.56892,4.23405 h 8.12931 v -21.08548 q 0,-2.117 1.52427,-3.21784 1.60894,-1.18553 3.81061,-1.18553 2.11704,0 3.72597,1.18553 1.60891,1.10084 1.60891,3.21784 v 25.48888 q 0,4.14934 -5.33488,4.14934 z"
           inkscape:export-filename="/home/xweber/daten/siduction/text_plus_symbol_as_bit1.png"
           inkscape:export-xdpi="150"
           inkscape:export-ydpi="150" />
        <path
           inkscape:connector-curvature="0"
           id="path3625-1-8-1-7-4-7-7-5-96-0-0-6-3-4-0-1-9-6-6-69-6-6-7-3-0"
           style="font-style:normal;font-variant:normal;font-weight:normal;font-stretch:normal;font-size:268.141px;line-height:125%;font-family:Axaxax;-inkscape-font-specification:Axaxax;letter-spacing:0px;word-spacing:0px;fill:#dfdbd2;fill-opacity:1;stroke:none;stroke-opacity:1"
           d="m 330.96667,201.32472 q 20.40804,0 20.40804,10.83912 0,4.74211 -5.50425,4.74211 -5.08084,0 -5.08084,-3.81064 0,-3.30254 -9.06082,-3.30254 -10.07698,0 -10.07698,3.72594 v 11.77062 q 0,3.47191 8.72211,3.47191 10.41569,0 10.41569,-3.47191 0,-4.23404 5.08084,-4.23404 5.58891,0 5.58891,4.23404 0,11.26252 -20.32333,11.26252 -20.15398,0 -20.15398,-9.82295 v -14.39569 q 0,-11.00849 19.98461,-11.00849 z"
           inkscape:export-filename="/home/xweber/daten/siduction/text_plus_symbol_as_bit1.png"
           inkscape:export-xdpi="150"
           inkscape:export-ydpi="150" />
        <path
           inkscape:connector-curvature="0"
           id="path3627-2-2-0-9-2-6-2-3-6-8-3-2-3-5-0-1-6-5-80-1-5-2-2-3-3"
           style="font-style:normal;font-variant:normal;font-weight:normal;font-stretch:normal;font-size:268.141px;line-height:125%;font-family:Axaxax;-inkscape-font-specification:Axaxax;letter-spacing:0px;word-spacing:0px;fill:#dfdbd2;fill-opacity:1;stroke:none;stroke-opacity:1"
           d="m 367.19575,201.32654 0.96223,-0.002 c 1.69361,-0.003 3.02028,0.4234 3.97998,1.2702 0.9597,0.8468 1.43957,1.86297 1.43957,3.04851 0,1.12907 -0.47987,2.117 -1.43957,2.9638 -0.9597,0.84684 -2.28668,1.30283 -3.97998,1.27024 l -0.96223,-0.0185 0.004,15.68442 c 0,1.3549 1.41134,2.03233 4.23404,2.03233 3.78238,0 5.67358,1.3549 5.67358,4.06468 0,2.87913 -1.7783,4.3187 -5.33487,4.3187 -10.16166,0 -15.2425,-2.738 -15.2425,-8.21401 v -33.2539 c 0,-1.41133 0.5363,-2.48397 1.60894,-3.21787 1.07263,-0.7339 2.3146,-1.10083 3.72594,-1.10083 1.4678,0 2.70977,0.36693 3.72594,1.10083 1.07263,0.7339 1.60893,1.80654 1.60893,3.21787 z"
           sodipodi:nodetypes="csssssccssssscsccc"
           inkscape:export-filename="/home/xweber/daten/siduction/text_plus_symbol_as_bit1.png"
           inkscape:export-xdpi="150"
           inkscape:export-ydpi="150" />
        <path
           inkscape:connector-curvature="0"
           id="path3629-26-3-0-1-5-9-6-5-4-9-7-2-4-3-4-9-8-7-2-0-7-8-2-3-7"
           style="font-style:normal;font-variant:normal;font-weight:normal;font-stretch:normal;font-size:268.141px;line-height:125%;font-family:Axaxax;-inkscape-font-specification:Axaxax;letter-spacing:0px;word-spacing:0px;fill:#dfdbd2;fill-opacity:1;stroke:none;stroke-opacity:1"
           d="m 387.51199,190.23157 q 2.20171,0 3.72594,1.18553 1.60894,1.10084 1.60894,3.04851 v 1.86297 q 0,2.117 -1.60894,3.21784 -1.52423,1.10087 -3.72594,1.10087 -2.28637,0 -3.81064,-1.18554 -1.52423,-1.18553 -1.52423,-3.13317 v -1.86297 q 0,-1.77831 1.43957,-2.96384 1.43957,-1.2702 3.8953,-1.2702 z m 0,13.29485 q 2.20171,0 3.72594,1.10084 1.60894,1.10084 1.60894,3.21787 v 23.79525 q 0,2.03233 -1.60894,3.21784 -1.52423,1.10086 -3.72594,1.10086 -2.45573,0 -3.8953,-1.2702 -1.43957,-1.27023 -1.43957,-3.0485 v -23.79525 q 0,-1.94767 1.52423,-3.13317 1.52427,-1.18554 3.81064,-1.18554 z"
           inkscape:export-filename="/home/xweber/daten/siduction/text_plus_symbol_as_bit1.png"
           inkscape:export-xdpi="150"
           inkscape:export-ydpi="150" />
        <path
           inkscape:connector-curvature="0"
           id="path3631-9-0-5-0-4-7-4-1-1-7-2-4-2-0-7-0-0-69-10-42-8-9-1-7-8"
           style="font-style:normal;font-variant:normal;font-weight:normal;font-stretch:normal;font-size:268.141px;line-height:125%;font-family:Axaxax;-inkscape-font-specification:Axaxax;letter-spacing:0px;word-spacing:0px;fill:#dfdbd2;fill-opacity:1;stroke:none;stroke-opacity:1"
           d="m 418.32506,201.32472 q 20.15397,0 20.15397,11.60125 v 12.02463 q 0,11.60125 -20.15397,11.60125 -20.40801,0 -20.40801,-11.60125 v -12.02463 q 0,-11.60125 20.40801,-11.60125 z m 0,8.46805 q -9.65359,0 -9.65359,3.1332 v 12.02463 q 0,3.13317 9.65359,3.13317 9.48421,0 9.48421,-3.13317 v -12.02463 q 0,-3.1332 -9.48421,-3.1332 z"
           inkscape:export-filename="/home/xweber/daten/siduction/text_plus_symbol_as_bit1.png"
           inkscape:export-xdpi="150"
           inkscape:export-ydpi="150" />
        <path
           inkscape:connector-curvature="0"
           id="path3633-1-7-0-3-2-6-0-1-9-8-3-7-4-7-5-0-8-7-5-74-5-5-6-3-8"
           style="font-style:normal;font-variant:normal;font-weight:normal;font-stretch:normal;font-size:268.141px;line-height:125%;font-family:Axaxax;-inkscape-font-specification:Axaxax;letter-spacing:0px;word-spacing:0px;fill:#dfdbd2;fill-opacity:1;stroke:none;stroke-opacity:1"
           d="m 463.7879,201.91749 q 20.23867,0 20.23867,11.68592 v 17.95227 q 0,2.11703 -1.60894,3.30254 -1.52424,1.10086 -3.72594,1.10086 -2.117,0 -3.72594,-1.10086 -1.60894,-1.18551 -1.60894,-3.30254 v -16.85143 q 0,-4.23401 -9.56891,-4.23401 h -9.56889 v 21.08544 q 0,2.11703 -1.60894,3.30254 -1.52426,1.10086 -3.72594,1.10086 -2.11703,0 -3.72597,-1.10086 -1.6089,-1.18551 -1.6089,-3.30254 v -25.48885 q 0,-4.14934 5.33487,-4.14934 z"
           inkscape:export-filename="/home/xweber/daten/siduction/text_plus_symbol_as_bit1.png"
           inkscape:export-xdpi="150"
           inkscape:export-ydpi="150" />
      </g>
      <g
         transform="matrix(0.06583721,0,0,0.06411836,104.47152,1196.2645)"
         id="g3675"
         style="fill:#dfdbd2;fill-opacity:1;stroke:none;stroke-opacity:1">
        <g
           id="g6718-5-6-0-0"
           style="display:inline;fill:#000000;fill-opacity:1;stroke:none;stroke-opacity:1"
           transform="translate(13.986357,-2.3265109)">
          <path
             style="display:inline;fill:#000000;fill-opacity:1;fill-rule:nonzero;stroke:none;stroke-opacity:1"
             d="m 1182.5051,525.9733 c 0,-47.17499 -38.2417,-85.4166 -85.4166,-85.41659 -47.1758,9.8e-4 -85.4174,38.24261 -85.4175,85.41746 0,47.17489 38.2417,85.4165 85.4166,85.41659 47.1749,-8e-5 85.4177,-38.24286 85.4175,-85.41746 z"
             id="path4680-7-52-4-4"
             inkscape:connector-curvature="0" />
          <path
             inkscape:connector-curvature="0"
             style="display:inline;fill:#000000;fill-opacity:1;fill-rule:nonzero;stroke:none;stroke-opacity:1"
             d="m 1038.8171,661.11962 c 0,-42.45748 -34.4175,-76.8749 -76.87491,-76.87492 -42.45823,8.1e-4 -76.8757,34.41829 -76.8757,76.87571 3e-5,42.45743 34.41745,76.87486 76.87492,76.87491 42.45739,-2e-5 76.87589,-34.41852 76.87569,-76.8757 z"
             id="path4680-8-3-6-6-0" />
          <path
             inkscape:connector-curvature="0"
             style="display:inline;fill:#000000;fill-opacity:1;fill-rule:nonzero;stroke:none;stroke-opacity:1"
             d="m 1041.8584,393.8684 c 10e-5,-42.4574 -34.4174,-76.87487 -76.87485,-76.87489 -42.45824,8.2e-4 -76.87571,34.41829 -76.87571,76.87571 4e-5,42.45742 34.41751,76.87489 76.87489,76.87489 42.45727,-1.7e-4 76.87577,-34.41867 76.87567,-76.87571 z"
             id="path4680-87-9-5-7-3" />
          <path
             inkscape:connector-curvature="0"
             style="display:inline;fill:#000000;fill-opacity:1;fill-rule:nonzero;stroke:none;stroke-opacity:1"
             d="m 899.0246,529.01469 c -2e-5,-38.21171 -30.97571,-69.18741 -69.18742,-69.18743 -38.2124,7.3e-4 -69.18813,30.97646 -69.18813,69.18813 3e-5,38.2117 30.97572,69.1874 69.18743,69.18742 38.21162,-5e-5 69.18826,-30.9767 69.18812,-69.18812 z"
             id="path4680-8-4-0-87-6-9" />
          <path
             inkscape:connector-curvature="0"
             style="display:inline;fill:#000000;fill-opacity:1;fill-rule:nonzero;stroke:none;stroke-opacity:1"
             d="m 904.12658,263.82411 c -10e-6,-38.2117 -30.97571,-69.18741 -69.18741,-69.18741 -38.21241,7.2e-4 -69.18814,30.97646 -69.18814,69.18814 2e-5,38.21168 30.97572,69.18739 69.18741,69.18741 38.21163,-6e-5 69.18828,-30.97671 69.18814,-69.18814 z"
             id="path4680-87-5-7-9-0-9" />
          <path
             inkscape:connector-curvature="0"
             style="display:inline;fill:#000000;fill-opacity:1;fill-rule:nonzero;stroke:none;stroke-opacity:1"
             d="m 905.87411,786.37515 c -3e-5,-38.21171 -30.97572,-69.1874 -69.18743,-69.18742 -38.2124,7.3e-4 -69.18813,30.97646 -69.18814,69.18814 4e-5,38.21169 30.97573,69.18738 69.18743,69.18743 38.21162,-7e-5 69.18828,-30.97672 69.18814,-69.18815 z"
             id="path4680-87-6-2-6-9-2" />
          <path
             inkscape:connector-curvature="0"
             style="display:inline;fill:#000000;fill-opacity:1;fill-rule:nonzero;stroke:none;stroke-opacity:1"
             d="m 766.85033,654.2702 c -10e-6,-34.39054 -27.87814,-62.26867 -62.26867,-62.26867 -34.39116,6.5e-4 -62.26931,27.8788 -62.26931,62.2693 10e-6,34.39053 27.87814,62.26866 62.26867,62.26868 34.39046,-5e-5 62.26944,-27.87903 62.26931,-62.26931 z"
             id="path4680-8-4-2-7-0-7-8" />
          <path
             inkscape:connector-curvature="0"
             style="display:inline;fill:#000000;fill-opacity:1;fill-rule:nonzero;stroke:none;stroke-opacity:1"
             d="m 762.06153,398.97041 c -3e-5,-34.39053 -27.87816,-62.26866 -62.26867,-62.26867 -34.39118,6.6e-4 -62.26933,27.87881 -62.26932,62.26932 0,34.39052 27.87814,62.26865 62.26867,62.26868 34.39046,-5e-5 62.26945,-27.87905 62.26932,-62.26933 z"
             id="path4680-87-5-9-2-4-5-1" />
          <path
             inkscape:connector-curvature="0"
             style="display:inline;fill:#000000;fill-opacity:1;fill-rule:nonzero;stroke:none;stroke-opacity:1"
             d="m 630.57914,524.22594 c -1e-5,-30.95148 -25.09033,-56.0418 -56.04182,-56.04181 -30.95204,5.8e-4 -56.04238,25.09092 -56.04238,56.04239 2e-5,30.95147 25.09034,56.04179 56.04181,56.04181 30.95142,-5e-5 56.04251,-25.09114 56.04239,-56.04239 z"
             id="path4680-8-4-2-6-9-1-9-0" />
        </g>
        <path
           style="display:inline;fill:#dfdbd2;fill-opacity:1;fill-rule:nonzero;stroke:none;stroke-opacity:1"
           d="m 1182.5051,525.9733 c 0,-47.17499 -38.2417,-85.4166 -85.4166,-85.41659 -47.1758,9.8e-4 -85.4174,38.24261 -85.4175,85.41746 0,47.17489 38.2417,85.4165 85.4166,85.41659 47.1749,-8e-5 85.4177,-38.24286 85.4175,-85.41746 z"
           id="path4680-7-52-4"
           inkscape:connector-curvature="0" />
        <path
           inkscape:connector-curvature="0"
           style="display:inline;fill:#dfdbd2;fill-opacity:1;fill-rule:nonzero;stroke:none;stroke-opacity:1"
           d="m 1038.8171,661.11962 c 0,-42.45748 -34.4175,-76.8749 -76.87491,-76.87492 -42.45823,8.1e-4 -76.8757,34.41829 -76.8757,76.87571 3e-5,42.45743 34.41745,76.87486 76.87492,76.87491 42.45739,-2e-5 76.87589,-34.41852 76.87569,-76.8757 z"
           id="path4680-8-3-6-6" />
        <path
           inkscape:connector-curvature="0"
           style="display:inline;fill:#dfdbd2;fill-opacity:1;fill-rule:nonzero;stroke:none;stroke-opacity:1"
           d="m 1041.8584,393.8684 c 10e-5,-42.4574 -34.4174,-76.87487 -76.87485,-76.87489 -42.45824,8.2e-4 -76.87571,34.41829 -76.87571,76.87571 4e-5,42.45742 34.41751,76.87489 76.87489,76.87489 42.45727,-1.7e-4 76.87577,-34.41867 76.87567,-76.87571 z"
           id="path4680-87-9-5-7" />
        <path
           inkscape:connector-curvature="0"
           style="display:inline;fill:#dfdbd2;fill-opacity:1;fill-rule:nonzero;stroke:none;stroke-opacity:1"
           d="m 899.0246,529.01469 c -2e-5,-38.21171 -30.97571,-69.18741 -69.18742,-69.18743 -38.2124,7.3e-4 -69.18813,30.97646 -69.18813,69.18813 3e-5,38.2117 30.97572,69.1874 69.18743,69.18742 38.21162,-5e-5 69.18826,-30.9767 69.18812,-69.18812 z"
           id="path4680-8-4-0-87-6" />
        <path
           inkscape:connector-curvature="0"
           style="display:inline;fill:#dfdbd2;fill-opacity:1;fill-rule:nonzero;stroke:none;stroke-opacity:1"
           d="m 904.12658,263.82411 c -10e-6,-38.2117 -30.97571,-69.18741 -69.18741,-69.18741 -38.21241,7.2e-4 -69.18814,30.97646 -69.18814,69.18814 2e-5,38.21168 30.97572,69.18739 69.18741,69.18741 38.21163,-6e-5 69.18828,-30.97671 69.18814,-69.18814 z"
           id="path4680-87-5-7-9-0" />
        <path
           inkscape:connector-curvature="0"
           style="display:inline;fill:#dfdbd2;fill-opacity:1;fill-rule:nonzero;stroke:none;stroke-opacity:1"
           d="m 905.87411,786.37515 c -3e-5,-38.21171 -30.97572,-69.1874 -69.18743,-69.18742 -38.2124,7.3e-4 -69.18813,30.97646 -69.18814,69.18814 4e-5,38.21169 30.97573,69.18738 69.18743,69.18743 38.21162,-7e-5 69.18828,-30.97672 69.18814,-69.18815 z"
           id="path4680-87-6-2-6-9" />
        <path
           inkscape:connector-curvature="0"
           style="display:inline;fill:#dfdbd2;fill-opacity:1;fill-rule:nonzero;stroke:none;stroke-opacity:1"
           d="m 766.85033,654.2702 c -10e-6,-34.39054 -27.87814,-62.26867 -62.26867,-62.26867 -34.39116,6.5e-4 -62.26931,27.8788 -62.26931,62.2693 10e-6,34.39053 27.87814,62.26866 62.26867,62.26868 34.39046,-5e-5 62.26944,-27.87903 62.26931,-62.26931 z"
           id="path4680-8-4-2-7-0-7" />
        <path
           inkscape:connector-curvature="0"
           style="display:inline;fill:#dfdbd2;fill-opacity:1;fill-rule:nonzero;stroke:none;stroke-opacity:1"
           d="m 762.06153,398.97041 c -3e-5,-34.39053 -27.87816,-62.26866 -62.26867,-62.26867 -34.39118,6.6e-4 -62.26933,27.87881 -62.26932,62.26932 0,34.39052 27.87814,62.26865 62.26867,62.26868 34.39046,-5e-5 62.26945,-27.87905 62.26932,-62.26933 z"
           id="path4680-87-5-9-2-4-5" />
        <path
           inkscape:connector-curvature="0"
           style="display:inline;fill:#dfdbd2;fill-opacity:1;fill-rule:nonzero;stroke:none;stroke-opacity:1"
           d="m 630.57914,524.22594 c -1e-5,-30.95148 -25.09033,-56.0418 -56.04182,-56.04181 -30.95204,5.8e-4 -56.04238,25.09092 -56.04238,56.04239 2e-5,30.95147 25.09034,56.04179 56.04181,56.04181 30.95142,-5e-5 56.04251,-25.09114 56.04239,-56.04239 z"
           id="path4680-8-4-2-6-9-1-9" />
      </g>
      <path
         style="fill:none;stroke:#ff6600;stroke-width:2.65806;stroke-linecap:butt;stroke-linejoin:miter;stroke-miterlimit:4;stroke-dasharray:none;stroke-opacity:1"
         d="m -599.00392,1245.7255 h 741.38534 l 16.64549,18.35 33.67746,-31.6244 46.95058,0.9887"
         id="path3876-1-0"
         inkscape:connector-curvature="0"
         sodipodi:nodetypes="ccccc"
         inkscape:export-filename="/home/coruja/siduction/artwork/coruja.web.header.png"
         inkscape:export-xdpi="89"
         inkscape:export-ydpi="89" />
      <text
         xml:space="preserve"
         id="text8160-6"
         style="font-style:normal;font-weight:normal;font-size:40px;line-height:1.25;font-family:sans-serif;letter-spacing:0px;word-spacing:0px;white-space:pre;shape-inside:url(#rect8162-3);fill:#ffffff;fill-opacity:1;stroke:none"
         transform="matrix(0.31799787,0,0,0.31799787,-582.00101,937.03724)"><tspan
           x="107.4668"
           y="1015.8848"
           id="tspan851">In memoriam Axel Beu</tspan></text>
      <text
         xml:space="preserve"
         style="font-style:normal;font-weight:normal;font-size:15.0764px;line-height:1.25;font-family:sans-serif;letter-spacing:0px;word-spacing:0px;fill:#000000;fill-opacity:1;stroke:none;stroke-width:0.565364"
         x="-548.05811"
         y="1239.9631"
         id="text8773-7"><tspan
           sodipodi:role="line"
           id="tspan8771-5"
           x="-548.05811"
           y="1239.9631"
           style="font-size:15.0764px;stroke-width:0.565364"><tspan
             style="font-size:15.0764px;fill:#ffffff;stroke-width:0.565364"
             id="tspan10117-3">Farewell</tspan></tspan></text>
    </g>
  </g>
</svg>
