<?xml version="1.0" encoding="UTF-8" standalone="no"?>
<!-- Created with Inkscape (http://www.inkscape.org/) -->

<svg
   xmlns:dc="http://purl.org/dc/elements/1.1/"
   xmlns:cc="http://creativecommons.org/ns#"
   xmlns:rdf="http://www.w3.org/1999/02/22-rdf-syntax-ns#"
   xmlns:svg="http://www.w3.org/2000/svg"
   xmlns="http://www.w3.org/2000/svg"
   xmlns:xlink="http://www.w3.org/1999/xlink"
   xmlns:sodipodi="http://sodipodi.sourceforge.net/DTD/sodipodi-0.dtd"
   xmlns:inkscape="http://www.inkscape.org/namespaces/inkscape"
   width="457"
   height="300"
   id="svg2"
   version="1.1"
   inkscape:version="0.92.0 r15299"
   sodipodi:docname="welcome.svg"
   inkscape:export-filename="/home/agaida/work/siduction/code/pkg-main/calamares-settings/siduction-calamares/svg/welcome.png"
   inkscape:export-xdpi="96"
   inkscape:export-ydpi="96"
   viewBox="0 0 457 300">
  <title
     id="title2687">siduction-noX</title>
  <defs
     id="defs4">
    <clipPath
       id="clipPath3538"
       clipPathUnits="userSpaceOnUse">
      <rect
         y="476.25256"
         x="230.04202"
         height="76.848099"
         width="353.09943"
         id="rect3540"
         style="opacity:0.4813084;fill:#000000;fill-opacity:1;stroke:none" />
    </clipPath>
    <filter
       style="color-interpolation-filters:sRGB"
       id="filter2673-1-5"
       inkscape:label="Metal Casting"
       inkscape:menu="Bevels"
       inkscape:menu-tooltip="Smooth drop-like bevel with metallic finish">
      <feColorMatrix
         id="feColorMatrix2675-7-2"
         values="0.37"
         type="saturate"
         in="SourceGraphic"
         result="result1" />
      <feGaussianBlur
         id="feGaussianBlur2677-8-7"
         stdDeviation="7"
         in="SourceAlpha" />
      <feSpecularLighting
         id="feSpecularLighting2679-9-6"
         specularExponent="8"
         specularConstant="3.88000011"
         surfaceScale="10"
         result="result2">
        <feDistantLight
           id="feDistantLight2681-8-5"
           azimuth="225"
           elevation="17" />
      </feSpecularLighting>
      <feComposite
         id="feComposite2683-7-9"
         in2="result1"
         operator="atop" />
    </filter>
    <filter
       y="-0.25"
       x="-0.25"
       height="1.5"
       width="1.5"
       inkscape:label="Drop shadow"
       id="filter8554-99-02-3-7-6"
       style="color-interpolation-filters:sRGB">
      <feGaussianBlur
         result="blur"
         stdDeviation="1"
         in="SourceAlpha"
         id="feGaussianBlur8556-3-0-6-7-5-0" />
      <feColorMatrix
         values="-1 0 0 0 1 0 -1 0 0 1 0 0 -1 0 1 0 0 0 0.5 0 "
         type="matrix"
         result="bluralpha"
         id="feColorMatrix8558-6-1-1-3-3" />
      <feOffset
         result="offsetBlur"
         dy="-1"
         dx="1"
         in="bluralpha"
         id="feOffset8560-0-9-0-9-9-3" />
      <feMerge
         id="feMerge8562-5-62-6-0-0">
        <feMergeNode
           in="offsetBlur"
           id="feMergeNode8564-0-1-3-3-3" />
        <feMergeNode
           in="SourceGraphic"
           id="feMergeNode8566-2-20-2-9-3" />
      </feMerge>
    </filter>
    <radialGradient
       r="57.480274"
       fy="477.45059"
       fx="1027.8583"
       cy="477.45059"
       cx="1027.8583"
       spreadMethod="pad"
       gradientTransform="matrix(1.0507753,1.0507753,-1.0507833,1.0507833,525.88971,-1084.3827)"
       gradientUnits="userSpaceOnUse"
       id="radialGradient4414-6"
       xlink:href="#linearGradient6147-1-1-4-4-7-0-6-2"
       inkscape:collect="always" />
    <linearGradient
       id="linearGradient6147-1-1-4-4-7-0-6-2">
      <stop
         id="stop6149-6-3-9-3-3-6-7-2"
         offset="0"
         style="stop-color:#5f8dd3;stop-opacity:1;" />
      <stop
         id="stop6151-5-0-9-5-1-1-4-4"
         offset="1"
         style="stop-color:#162d50;stop-opacity:1;" />
    </linearGradient>
    <radialGradient
       r="57.480274"
       fy="477.45059"
       fx="1027.8583"
       cy="477.45059"
       cx="1027.8583"
       spreadMethod="pad"
       gradientTransform="matrix(0.94569776,0.94569776,-0.94570497,0.94570497,447.86331,-788.20071)"
       gradientUnits="userSpaceOnUse"
       id="radialGradient4416-0"
       xlink:href="#linearGradient6147-1-1-5-94-7-1-5-3-5"
       inkscape:collect="always" />
    <linearGradient
       id="linearGradient6147-1-1-5-94-7-1-5-3-5">
      <stop
         id="stop6149-6-3-5-2-4-9-5-2-6"
         offset="0"
         style="stop-color:#5f8dd3;stop-opacity:1;" />
      <stop
         id="stop6151-5-0-3-06-3-0-4-0-6"
         offset="1"
         style="stop-color:#162d50;stop-opacity:1;" />
    </linearGradient>
    <radialGradient
       r="57.480274"
       fy="477.45059"
       fx="1027.8583"
       cy="477.45059"
       cx="1027.8583"
       spreadMethod="pad"
       gradientTransform="matrix(0.94569776,0.94569776,-0.94570497,0.94570497,450.90469,-1055.4519)"
       gradientUnits="userSpaceOnUse"
       id="radialGradient4418-7"
       xlink:href="#linearGradient6147-1-1-0-9-4-5-7-2-1"
       inkscape:collect="always" />
    <linearGradient
       id="linearGradient6147-1-1-0-9-4-5-7-2-1">
      <stop
         id="stop6149-6-3-3-5-6-6-6-2-1"
         offset="0"
         style="stop-color:#5f8dd3;stop-opacity:1;" />
      <stop
         id="stop6151-5-0-36-6-9-7-5-6-0"
         offset="1"
         style="stop-color:#162d50;stop-opacity:1;" />
    </linearGradient>
    <radialGradient
       r="57.480274"
       fy="477.45059"
       fx="1027.8583"
       cy="477.45059"
       cx="1027.8583"
       spreadMethod="pad"
       gradientTransform="matrix(0.85112803,0.85112803,-0.85113446,0.85113446,367.16622,-775.37358)"
       gradientUnits="userSpaceOnUse"
       id="radialGradient4420-0"
       xlink:href="#linearGradient6147-1-1-5-3-14-2-7-6-8-6-6"
       inkscape:collect="always" />
    <linearGradient
       id="linearGradient6147-1-1-5-3-14-2-7-6-8-6-6">
      <stop
         id="stop6149-6-3-5-0-3-2-4-9-1-8"
         offset="0"
         style="stop-color:#5f8dd3;stop-opacity:1;" />
      <stop
         id="stop6151-5-0-3-0-7-6-0-3-4-5"
         offset="1"
         style="stop-color:#162d50;stop-opacity:1;" />
    </linearGradient>
    <radialGradient
       r="57.480274"
       fy="477.45059"
       fx="1027.8583"
       cy="477.45059"
       cx="1027.8583"
       spreadMethod="pad"
       gradientTransform="matrix(0.85112803,0.85112803,-0.85113446,0.85113446,372.26819,-1040.5642)"
       gradientUnits="userSpaceOnUse"
       id="radialGradient4422-1"
       xlink:href="#linearGradient6147-1-1-0-5-7-1-64-7-8-6"
       inkscape:collect="always" />
    <linearGradient
       id="linearGradient6147-1-1-0-5-7-1-64-7-8-6">
      <stop
         id="stop6149-6-3-3-1-3-2-7-4-7-9-0"
         offset="0"
         style="stop-color:#5f8dd3;stop-opacity:1;" />
      <stop
         id="stop6151-5-0-36-1-39-8-4-5-3-7"
         offset="1"
         style="stop-color:#162d50;stop-opacity:1;" />
    </linearGradient>
    <radialGradient
       r="57.480274"
       fy="477.45059"
       fx="1027.8583"
       cy="477.45059"
       cx="1027.8583"
       spreadMethod="pad"
       gradientTransform="matrix(0.85112803,0.85112803,-0.85113446,0.85113446,374.01573,-518.01311)"
       gradientUnits="userSpaceOnUse"
       id="radialGradient4424-0"
       xlink:href="#linearGradient6147-1-1-0-2-4-9-8-2-5-2"
       inkscape:collect="always" />
    <linearGradient
       id="linearGradient6147-1-1-0-2-4-9-8-2-5-2">
      <stop
         id="stop6149-6-3-3-4-4-28-5-5-0-1"
         offset="0"
         style="stop-color:#5f8dd3;stop-opacity:1;" />
      <stop
         id="stop6151-5-0-36-9-49-8-8-4-2-7"
         offset="1"
         style="stop-color:#162d50;stop-opacity:1;" />
    </linearGradient>
    <radialGradient
       r="57.480274"
       fy="477.45059"
       fx="1027.8583"
       cy="477.45059"
       cx="1027.8583"
       spreadMethod="pad"
       gradientTransform="matrix(0.76601521,0.76601521,-0.76602101,0.76602101,288.17779,-519.67927)"
       gradientUnits="userSpaceOnUse"
       id="radialGradient4426-1"
       xlink:href="#linearGradient6147-1-1-5-3-1-3-6-2-7-2-7"
       inkscape:collect="always" />
    <linearGradient
       id="linearGradient6147-1-1-5-3-1-3-6-2-7-2-7">
      <stop
         id="stop6149-6-3-5-0-7-8-8-6-4-7-5"
         offset="0"
         style="stop-color:#5f8dd3;stop-opacity:1;" />
      <stop
         id="stop6151-5-0-3-0-2-32-3-0-4-7-9"
         offset="1"
         style="stop-color:#162d50;stop-opacity:1;" />
    </linearGradient>
    <radialGradient
       r="57.480274"
       fy="477.45059"
       fx="1027.8583"
       cy="477.45059"
       cx="1027.8583"
       spreadMethod="pad"
       gradientTransform="matrix(0.76601521,0.76601521,-0.76602101,0.76602101,283.38898,-774.97902)"
       gradientUnits="userSpaceOnUse"
       id="radialGradient4428-3"
       xlink:href="#linearGradient6147-1-1-0-5-6-5-3-6-3-4-8"
       inkscape:collect="always" />
    <linearGradient
       id="linearGradient6147-1-1-0-5-6-5-3-6-3-4-8">
      <stop
         id="stop6149-6-3-3-1-1-4-3-6-0-1-3"
         offset="0"
         style="stop-color:#5f8dd3;stop-opacity:1;" />
      <stop
         id="stop6151-5-0-36-1-5-3-3-4-7-7-3"
         offset="1"
         style="stop-color:#162d50;stop-opacity:1;" />
    </linearGradient>
    <radialGradient
       r="57.480274"
       fy="477.45059"
       fx="1027.8583"
       cy="477.45059"
       cx="1027.8583"
       spreadMethod="pad"
       gradientTransform="matrix(0.68941368,0.68941368,-0.68941893,0.68941893,199.77384,-532.32858)"
       gradientUnits="userSpaceOnUse"
       id="radialGradient4430-7"
       xlink:href="#linearGradient6147-1-1-5-3-1-8-4-0-6-8-4-4"
       inkscape:collect="always" />
    <linearGradient
       id="linearGradient6147-1-1-5-3-1-8-4-0-6-8-4-4">
      <stop
         id="stop6149-6-3-5-0-7-1-9-4-2-6-8-7-3"
         offset="0"
         style="stop-color:#5f8dd3;stop-opacity:1;" />
      <stop
         id="stop6151-5-0-3-0-2-3-5-7-8-8-0-7"
         offset="1"
         style="stop-color:#162d50;stop-opacity:1;" />
    </linearGradient>
  </defs>
  <sodipodi:namedview
     id="base"
     pagecolor="#ffffff"
     bordercolor="#666666"
     borderopacity="1.0"
     inkscape:pageopacity="0.0"
     inkscape:pageshadow="2"
     inkscape:zoom="3.0250865"
     inkscape:cx="248.6875"
     inkscape:cy="123.13584"
     inkscape:document-units="px"
     inkscape:current-layer="layer1"
     showgrid="false"
     inkscape:window-width="1920"
     inkscape:window-height="1139"
     inkscape:window-x="0"
     inkscape:window-y="0"
     inkscape:window-maximized="1"
     width="0px"
     height="0px"
     fit-margin-top="0"
     fit-margin-left="0"
     fit-margin-right="0"
     fit-margin-bottom="0"
     borderlayer="true"
     showguides="true"
     inkscape:guide-bbox="true"
     inkscape:snap-bbox="true"
     inkscape:bbox-paths="true"
     inkscape:snap-bbox-edge-midpoints="false"
     inkscape:snap-bbox-midpoints="false"
     inkscape:bbox-nodes="true"
     inkscape:snap-page="true">
    <sodipodi:guide
       orientation="0,1"
       position="-4.9999989,600"
       id="guide9388"
       inkscape:locked="false" />
    <sodipodi:guide
       orientation="1,0"
       position="-4.9999989,600"
       id="guide9390"
       inkscape:locked="false" />
    <sodipodi:guide
       orientation="1,0"
       position="805.00001,-2.4999503"
       id="guide9399"
       inkscape:locked="false" />
    <sodipodi:guide
       orientation="0,1"
       position="810.00001,-19.99995"
       id="guide9401"
       inkscape:locked="false" />
    <sodipodi:guide
       orientation="0,1"
       position="1.2109375e-06,605"
       id="guide13870"
       inkscape:locked="false" />
    <sodipodi:guide
       orientation="1,0"
       position="0,570.87884"
       id="guide13872"
       inkscape:locked="false" />
    <sodipodi:guide
       orientation="0,1"
       position="-2.4999988,4.9726563e-05"
       id="guide13874"
       inkscape:locked="false" />
    <sodipodi:guide
       orientation="0,1"
       position="-4.9999989,-4.9999504"
       id="guide13876"
       inkscape:locked="false" />
    <sodipodi:guide
       orientation="1,0"
       position="805.00001,30.679376"
       id="guide13878"
       inkscape:locked="false" />
    <sodipodi:guide
       orientation="1,0"
       position="784.92644,88.818755"
       id="guide3817"
       inkscape:locked="false" />
    <sodipodi:guide
       orientation="0,1"
       position="777.93895,555"
       id="guide3819"
       inkscape:locked="false" />
    <sodipodi:guide
       orientation="0,1"
       position="526.93512,74.963312"
       id="guide250"
       inkscape:locked="false" />
    <sodipodi:guide
       orientation="1,0"
       position="40.000001,625"
       id="guide252"
       inkscape:locked="false" />
    <sodipodi:guide
       orientation="1,0"
       position="-200.30764,260.28347"
       id="guide3253"
       inkscape:locked="false" />
  </sodipodi:namedview>
  <metadata
     id="metadata7">
    <rdf:RDF>
      <cc:Work
         rdf:about="">
        <dc:format>image/svg+xml</dc:format>
        <dc:type
           rdf:resource="http://purl.org/dc/dcmitype/StillImage" />
        <dc:title>siduction-noX</dc:title>
        <dc:date>2012-10-13</dc:date>
        <dc:creator>
          <cc:Agent>
            <dc:title>Sven Strohmeier</dc:title>
          </cc:Agent>
        </dc:creator>
        <dc:rights>
          <cc:Agent>
            <dc:title>Sven Strohmeier</dc:title>
          </cc:Agent>
        </dc:rights>
        <dc:publisher>
          <cc:Agent>
            <dc:title>Sven Strohmeier</dc:title>
          </cc:Agent>
        </dc:publisher>
        <dc:subject>
          <rdf:Bag>
            <rdf:li>gfx</rdf:li>
          </rdf:Bag>
        </dc:subject>
        <dc:description>Wallpaper for siduction

This work is published under the WTFPL</dc:description>
        <dc:contributor>
          <cc:Agent>
            <dc:title>Sven Strohmeier {se7enelven at gmail dot com}
Hendrik Lehmbruch {hlehmbruch at gmx dot net}
Alexander Weber {xweber.alex at googlemail dot com}
Tom Wroblewski {GoinEasy9 at linux dot com}
Markus Meyer {coruja at siduction dot org}</dc:title>
          </cc:Agent>
        </dc:contributor>
        <cc:license
           rdf:resource="http://sam.zoy.org/wtfpl/    " />
      </cc:Work>
    </rdf:RDF>
  </metadata>
  <g
     inkscape:label="Layer 1"
     inkscape:groupmode="layer"
     id="layer1"
     transform="translate(587.95276,-1044.9311)">
    <text
       xml:space="preserve"
       style="font-style:normal;font-variant:normal;font-weight:normal;font-stretch:normal;font-size:28.29960251px;line-height:125%;font-family:Sans;-inkscape-font-specification:Sans;text-align:center;letter-spacing:0px;word-spacing:0px;writing-mode:lr-tb;text-anchor:middle;fill:#e61919;fill-opacity:1;stroke:none"
       x="566.99707"
       y="691.00446"
       id="text2399-6"
       transform="matrix(0.7895518,0.62444279,-0.61623404,0.77917257,0,0)"><tspan
         sodipodi:role="line"
         id="tspan2401-6"
         x="566.99707"
         y="691.00446"
         style="font-style:normal;font-variant:normal;font-weight:bold;font-stretch:normal;font-size:30.22049141px;line-height:125%;font-family:Sans;-inkscape-font-specification:'Sans Bold';text-align:center;writing-mode:lr-tb;text-anchor:middle">Release Candidate</tspan><tspan
         sodipodi:role="line"
         x="566.99707"
         y="727.08051"
         style="font-style:normal;font-variant:normal;font-weight:normal;font-stretch:normal;font-size:27.38732147px;line-height:125%;font-family:Sans;-inkscape-font-specification:Sans;text-align:center;writing-mode:lr-tb;text-anchor:middle"
         id="tspan9905" /></text>
    <image
       sodipodi:absref="/home/agaida/work/siduction/code/pkg-main/calamares-settings/siduction-calamares/svg/background.jpg"
       xlink:href="background.jpg"
       preserveAspectRatio="none"
       width="505.71017"
       height="316.06888"
       id="image12629"
       x="-592.95276"
       y="1033.8622" />
    <g
       transform="translate(-463.31192,60.251364)"
       id="layer1-4"
       inkscape:label="Layer 1">
      <g
         transform="matrix(0.71176202,0,0,0.69059463,-161.19052,664.92927)"
         clip-path="url(#clipPath3538)"
         id="g3506">
        <g
           inkscape:export-ydpi="89"
           inkscape:export-xdpi="89"
           inkscape:export-filename="/home/coruja/siduction/artwork/coruja.web.header.png"
           id="g6886-9-9"
           style="display:inline"
           transform="matrix(1.1785216,0,0,1.1829341,-1393.5471,-667.09574)" />
      </g>
    </g>
    <text
       xml:space="preserve"
       style="font-style:normal;font-variant:normal;font-weight:normal;font-stretch:normal;font-size:74.87728119px;line-height:125%;font-family:Sans;-inkscape-font-specification:Sans;text-align:start;letter-spacing:0px;word-spacing:0px;writing-mode:lr-tb;text-anchor:start;fill:#999999;fill-opacity:1;stroke:none;filter:url(#filter2673-1-5)"
       x="-807.99683"
       y="854.18756"
       id="text2399-3"
       transform="matrix(0.50357273,0,0,0.49695292,-363.60649,815.0816)"><tspan
         sodipodi:role="line"
         id="tspan2401-9"
         x="-807.99683"
         y="920.4364" /></text>
    <path
       style="font-style:normal;font-variant:normal;font-weight:normal;font-stretch:normal;font-size:268.14126587px;line-height:125%;font-family:Axaxax;-inkscape-font-specification:Axaxax;letter-spacing:0px;word-spacing:0px;fill:#284d80;fill-opacity:1;stroke:none;stroke-width:0.63502359;filter:url(#filter8554-99-02-3-7-6)"
       d="M 194.34961 183.69922 C 193.25387 183.69922 192.38452 183.97539 191.74219 184.52734 C 191.09984 185.04254 190.7793 185.68619 190.7793 186.45898 L 190.7793 187.67188 C 190.7793 188.51826 191.1187 189.19965 191.79883 189.71484 C 192.47896 190.23 193.32944 190.48828 194.34961 190.48828 C 195.33202 190.48828 196.16362 190.2479 196.84375 189.76953 C 197.56167 189.29117 197.91992 188.59185 197.91992 187.67188 L 197.91992 186.45898 C 197.91992 185.61264 197.56167 184.9491 196.84375 184.4707 C 196.16362 183.95554 195.33202 183.69922 194.34961 183.69922 z M 291.2793 183.89062 C 290.37113 183.89062 289.57107 184.12016 288.88086 184.58008 C 288.19064 185.04 287.8457 185.7132 287.8457 186.59766 L 287.8457 207.43555 C 287.8457 210.86725 291.11549 212.58398 297.6543 212.58398 C 299.94287 212.58398 301.08594 211.68125 301.08594 209.87695 C 301.08594 208.17879 299.86943 207.33008 297.43555 207.33008 C 295.6192 207.33008 294.71094 206.90573 294.71094 206.05664 L 294.70898 196.22656 L 295.32812 196.23828 C 296.41773 196.2587 297.27113 195.97406 297.88867 195.44336 C 298.50622 194.91269 298.81445 194.2935 298.81445 193.58594 C 298.81445 192.84298 298.50622 192.20645 297.88867 191.67578 C 297.27113 191.14511 296.41793 190.87703 295.32812 190.87891 L 294.70898 190.88086 L 294.71094 186.59766 C 294.71094 185.7132 294.366 185.04 293.67578 184.58008 C 293.0219 184.12016 292.22379 183.89062 291.2793 183.89062 z M 223.45898 183.92773 C 222.5508 183.92773 221.75074 184.17462 221.06055 184.66992 C 220.37033 185.12984 220.02539 185.76637 220.02539 186.58008 L 220.02539 207.22461 L 213.92188 207.22461 C 211.85124 207.22461 210.34489 207.01243 209.40039 206.58789 C 208.45591 206.12797 207.98242 205.43742 207.98242 204.51758 L 207.98242 198.89258 C 207.98242 197.37132 209.65403 196.61133 212.99609 196.61133 L 215.17578 196.61133 C 216.1566 196.61133 216.97502 196.36249 217.62891 195.86719 C 218.28278 195.37189 218.60938 194.71799 218.60938 193.9043 C 218.60938 193.16135 218.2992 192.54218 217.68164 192.04688 C 217.10041 191.5162 216.26558 191.25 215.17578 191.25 L 212.99609 191.25 C 205.07686 191.25 201.11719 193.47982 201.11719 197.9375 L 201.11719 205.73828 C 201.11719 208.03787 202.15204 209.7546 204.22266 210.88672 C 206.29328 212.01882 209.50993 212.58398 213.86914 212.58398 L 223.51367 212.58398 C 225.76594 212.58398 226.89063 211.69861 226.89062 209.92969 L 226.89062 186.58008 C 226.89062 185.83712 226.5824 185.21795 225.96484 184.72266 C 225.34729 184.19198 224.51246 183.92773 223.45898 183.92773 z M 307.78125 183.92773 C 306.72778 183.92773 305.89295 184.19198 305.27539 184.72266 C 304.65784 185.21795 304.34961 185.83712 304.34961 186.58008 L 304.34961 187.74805 C 304.34961 188.56174 304.67621 189.21759 305.33008 189.71289 C 305.98397 190.20819 306.80043 190.45508 307.78125 190.45508 C 308.72575 190.45508 309.52581 190.22555 310.17969 189.76562 C 310.8699 189.30571 311.21484 188.6325 311.21484 187.74805 L 311.21484 186.58008 C 311.21484 185.76637 310.8699 185.12984 310.17969 184.66992 C 309.52581 184.17462 308.72575 183.92773 307.78125 183.92773 z M 174.4707 190.87891 C 171.96415 190.87891 169.91088 191.03901 168.3125 191.35742 C 166.71412 191.67582 165.44255 192.11753 164.49805 192.68359 C 163.55355 193.24965 162.90037 193.92285 162.53711 194.70117 C 162.17384 195.4795 161.99219 196.34557 161.99219 197.30078 C 161.99219 198.46827 162.28205 199.4771 162.86328 200.32617 C 163.48084 201.13988 164.33403 201.82847 165.42383 202.39453 C 166.54996 202.9252 167.87663 203.33221 169.40234 203.61523 C 170.9644 203.86289 172.69108 203.98633 174.58008 203.98633 C 175.81519 203.98633 176.83167 204.04035 177.63086 204.14648 C 178.43005 204.21724 179.06486 204.34069 179.53711 204.51758 C 180.00935 204.69447 180.3379 204.90665 180.51953 205.1543 C 180.70118 205.40194 180.79102 205.68549 180.79102 206.00391 C 180.79102 206.60534 180.30115 207.08177 179.32031 207.43555 C 178.37583 207.78933 176.70422 207.9668 174.30664 207.9668 C 172.12705 207.9668 170.60231 207.82599 169.73047 207.54297 C 168.85862 207.25993 168.42188 206.97638 168.42188 206.69336 C 168.42187 205.84428 168.0953 205.20775 167.44141 204.7832 C 166.78753 204.32329 166.02419 204.09375 165.15234 204.09375 C 164.17152 204.09375 163.31833 204.34063 162.5918 204.83594 C 161.90158 205.29585 161.55664 205.96906 161.55664 206.85352 C 161.55664 207.91487 161.90158 208.833 162.5918 209.61133 C 163.28201 210.35427 164.20864 210.97345 165.37109 211.46875 C 166.53355 211.96405 167.89498 212.33634 169.45703 212.58398 C 171.05541 212.83164 172.76374 212.95508 174.58008 212.95508 C 176.50538 212.95508 178.26684 212.79692 179.86523 212.47852 C 181.46361 212.1601 182.82505 211.71644 183.95117 211.15039 C 185.11364 210.54896 186.00354 209.86035 186.62109 209.08203 C 187.23865 208.26832 187.54687 207.38295 187.54688 206.42773 C 187.54687 205.15411 187.33045 204.07586 186.89453 203.19141 C 186.45861 202.27157 185.732 201.52895 184.71484 200.96289 C 183.69771 200.39684 182.35267 199.98984 180.68164 199.74219 C 179.01061 199.45916 176.95929 199.31641 174.52539 199.31641 C 173.29028 199.31641 172.29021 199.28169 171.52734 199.21094 C 170.76449 199.1048 170.16639 198.98136 169.73047 198.83984 C 169.29455 198.66295 169.00273 198.45078 168.85742 198.20312 C 168.71212 197.95547 168.64062 197.68927 168.64062 197.40625 C 168.64063 197.19397 168.71212 196.9818 168.85742 196.76953 C 169.00273 196.52188 169.31096 196.32706 169.7832 196.18555 C 170.25546 196.00866 170.91059 195.86785 171.74609 195.76172 C 172.58162 195.65559 173.6899 195.60156 175.07031 195.60156 C 177.14095 195.60156 178.57581 195.77903 179.375 196.13281 C 180.17419 196.48659 180.57227 196.82221 180.57227 197.14062 C 180.57227 197.84819 180.91721 198.39795 181.60742 198.78711 C 182.29763 199.17628 183.11606 199.37109 184.06055 199.37109 C 184.96872 199.37109 185.75042 199.21099 186.4043 198.89258 C 187.09451 198.5388 187.43945 197.95432 187.43945 197.14062 C 187.43945 194.94716 186.42101 193.35582 184.38672 192.36523 C 182.35242 191.37463 179.04788 190.87891 174.4707 190.87891 z M 271.39648 190.87891 C 262.82337 190.87891 258.53711 193.17815 258.53711 197.77734 L 258.53711 206.79883 C 258.53711 210.90272 262.86009 212.95508 271.50586 212.95508 C 280.22428 212.95508 284.58203 210.60377 284.58203 205.89844 C 284.58203 204.12951 283.38389 203.24414 280.98633 203.24414 C 278.80672 203.24414 277.7168 204.12951 277.7168 205.89844 C 277.7168 207.34895 275.48381 208.07422 271.01562 208.07422 C 267.27396 208.07422 265.40234 207.34895 265.40234 205.89844 L 265.40234 198.52148 C 265.40234 196.96484 267.56384 196.18555 271.88672 196.18555 C 275.77368 196.18555 277.7168 196.8761 277.7168 198.25586 C 277.7168 199.84789 278.80672 200.64453 280.98633 200.64453 C 283.34757 200.64453 284.52734 199.65306 284.52734 197.67188 C 284.52734 193.14344 280.15124 190.87891 271.39648 190.87891 z M 327.60938 190.87891 C 318.85463 190.87891 314.47656 193.30355 314.47656 198.15039 L 314.47656 205.68555 C 314.47656 210.53239 318.85463 212.95508 327.60938 212.95508 C 336.25514 212.95508 340.57812 210.53239 340.57812 205.68555 L 340.57812 198.15039 C 340.57813 193.30355 336.25514 190.87891 327.60938 190.87891 z M 233.58594 191.25 C 232.64144 191.25 231.82496 191.49884 231.13477 191.99414 C 230.48088 192.45406 230.1543 193.12531 230.1543 194.00977 L 230.1543 205.25977 C 230.1543 210.14198 234.49563 212.58398 243.17773 212.58398 L 251.8418 212.58398 C 254.13038 212.58398 255.27344 211.71791 255.27344 209.98438 L 255.27344 194.00977 C 255.27344 193.12531 254.92848 192.45406 254.23828 191.99414 C 253.54807 191.49884 252.74998 191.25 251.8418 191.25 C 250.89731 191.25 250.07888 191.49884 249.38867 191.99414 C 248.73478 192.45406 248.4082 193.12531 248.4082 194.00977 L 248.4082 207.22461 L 243.17773 207.22461 C 239.0728 207.22461 237.01953 206.33924 237.01953 204.57031 L 237.01953 194.00977 C 237.01953 193.12531 236.67458 192.45406 235.98438 191.99414 C 235.29416 191.49884 234.4941 191.25 233.58594 191.25 z M 347.27344 191.25 C 344.98485 191.25 343.83984 192.11802 343.83984 193.85156 L 343.83984 209.82422 C 343.83984 210.70869 344.1848 211.39924 344.875 211.89453 C 345.56521 212.35446 346.36526 212.58398 347.27344 212.58398 C 348.21793 212.58398 349.01799 212.35446 349.67188 211.89453 C 350.36209 211.39924 350.70703 210.70869 350.70703 209.82422 L 350.70703 196.61133 L 356.86328 196.61133 C 360.96821 196.61133 363.02148 197.49476 363.02148 199.26367 L 363.02148 209.82422 C 363.02148 210.70869 363.36643 211.39924 364.05664 211.89453 C 364.74685 212.35446 365.54496 212.58398 366.45312 212.58398 C 367.39762 212.58398 368.19769 212.35446 368.85156 211.89453 C 369.54177 211.39924 369.88672 210.70869 369.88672 209.82422 L 369.88672 198.57422 C 369.88672 193.692 365.54538 191.25 356.86328 191.25 L 347.27344 191.25 z M 194.42188 192.25977 C 193.44104 192.25977 192.62458 192.50665 191.9707 193.00195 C 191.31683 193.49724 190.98828 194.15113 190.98828 194.96484 L 190.98828 209.87695 C 190.98828 210.61989 191.29846 211.25642 191.91602 211.78711 C 192.53357 212.31778 193.3684 212.58398 194.42188 212.58398 C 195.36636 212.58398 196.16642 212.35446 196.82031 211.89453 C 197.51052 211.39924 197.85547 210.72603 197.85547 209.87695 L 197.85547 194.96484 C 197.85547 194.08038 197.51052 193.40913 196.82031 192.94922 C 196.16642 192.4893 195.36636 192.25977 194.42188 192.25977 z M 307.78125 192.25977 C 306.80043 192.25977 305.98397 192.50665 305.33008 193.00195 C 304.67621 193.49724 304.34961 194.15113 304.34961 194.96484 L 304.34961 209.87695 C 304.34961 210.61989 304.65784 211.25642 305.27539 211.78711 C 305.89295 212.31778 306.72778 212.58398 307.78125 212.58398 C 308.72575 212.58398 309.52581 212.35446 310.17969 211.89453 C 310.8699 211.39924 311.21484 210.72603 311.21484 209.87695 L 311.21484 194.96484 C 311.21484 194.08038 310.8699 193.40913 310.17969 192.94922 C 309.52581 192.4893 308.72575 192.25977 307.78125 192.25977 z M 327.60938 196.18555 C 331.67797 196.18555 333.71289 196.84138 333.71289 198.15039 L 333.71289 205.68555 C 333.71289 206.99454 331.67797 207.64844 327.60938 207.64844 C 323.46812 207.64844 321.39844 206.99454 321.39844 205.68555 L 321.39844 198.15039 C 321.39844 196.84138 323.46812 196.18555 327.60938 196.18555 z "
       transform="translate(-587.95276,1044.9311)"
       id="path3617-6-5-3-1-8-1-3-1-36-1-6-8-3-7-1-8-2-7-12-8-7-5-6-8-9" />
    <g
       id="g6718-5-6-0"
       style="display:inline"
       transform="matrix(0.06809354,0,0,0.06631584,-244.70985,1208.4358)">
      <path
         style="display:inline;fill:url(#radialGradient4414-6);fill-opacity:1;fill-rule:nonzero;stroke:none"
         d="m 1182.5051,525.9733 c 0,-47.17499 -38.2417,-85.4166 -85.4166,-85.41659 -47.1758,9.8e-4 -85.4174,38.24261 -85.4175,85.41746 0,47.17489 38.2417,85.4165 85.4166,85.41659 47.1749,-8e-5 85.4177,-38.24286 85.4175,-85.41746 z"
         id="path4680-7-52-4"
         inkscape:connector-curvature="0" />
      <path
         inkscape:connector-curvature="0"
         style="display:inline;fill:url(#radialGradient4416-0);fill-opacity:1;fill-rule:nonzero;stroke:none"
         d="m 1038.8171,661.11962 c 0,-42.45748 -34.4175,-76.8749 -76.87491,-76.87492 -42.45823,8.1e-4 -76.8757,34.41829 -76.8757,76.87571 3e-5,42.45743 34.41745,76.87486 76.87492,76.87491 42.45739,-2e-5 76.87589,-34.41852 76.87569,-76.8757 z"
         id="path4680-8-3-6-6" />
      <path
         inkscape:connector-curvature="0"
         style="display:inline;fill:url(#radialGradient4418-7);fill-opacity:1;fill-rule:nonzero;stroke:none"
         d="m 1041.8584,393.8684 c 10e-5,-42.4574 -34.4174,-76.87487 -76.87485,-76.87489 -42.45824,8.2e-4 -76.87571,34.41829 -76.87571,76.87571 4e-5,42.45742 34.41751,76.87489 76.87489,76.87489 42.45727,-1.7e-4 76.87577,-34.41867 76.87567,-76.87571 z"
         id="path4680-87-9-5-7" />
      <path
         inkscape:connector-curvature="0"
         style="display:inline;fill:url(#radialGradient4420-0);fill-opacity:1;fill-rule:nonzero;stroke:none"
         d="m 899.0246,529.01469 c -2e-5,-38.21171 -30.97571,-69.18741 -69.18742,-69.18743 -38.2124,7.3e-4 -69.18813,30.97646 -69.18813,69.18813 3e-5,38.2117 30.97572,69.1874 69.18743,69.18742 38.21162,-5e-5 69.18826,-30.9767 69.18812,-69.18812 z"
         id="path4680-8-4-0-87-6" />
      <path
         inkscape:connector-curvature="0"
         style="display:inline;fill:url(#radialGradient4422-1);fill-opacity:1;fill-rule:nonzero;stroke:none"
         d="m 904.12658,263.82411 c -10e-6,-38.2117 -30.97571,-69.18741 -69.18741,-69.18741 -38.21241,7.2e-4 -69.18814,30.97646 -69.18814,69.18814 2e-5,38.21168 30.97572,69.18739 69.18741,69.18741 38.21163,-6e-5 69.18828,-30.97671 69.18814,-69.18814 z"
         id="path4680-87-5-7-9-0" />
      <path
         inkscape:connector-curvature="0"
         style="display:inline;fill:url(#radialGradient4424-0);fill-opacity:1;fill-rule:nonzero;stroke:none"
         d="m 905.87411,786.37515 c -3e-5,-38.21171 -30.97572,-69.1874 -69.18743,-69.18742 -38.2124,7.3e-4 -69.18813,30.97646 -69.18814,69.18814 4e-5,38.21169 30.97573,69.18738 69.18743,69.18743 38.21162,-7e-5 69.18828,-30.97672 69.18814,-69.18815 z"
         id="path4680-87-6-2-6-9" />
      <path
         inkscape:connector-curvature="0"
         style="display:inline;fill:url(#radialGradient4426-1);fill-opacity:1;fill-rule:nonzero;stroke:none"
         d="m 766.85033,654.2702 c -10e-6,-34.39054 -27.87814,-62.26867 -62.26867,-62.26867 -34.39116,6.5e-4 -62.26931,27.8788 -62.26931,62.2693 10e-6,34.39053 27.87814,62.26866 62.26867,62.26868 34.39046,-5e-5 62.26944,-27.87903 62.26931,-62.26931 z"
         id="path4680-8-4-2-7-0-7" />
      <path
         inkscape:connector-curvature="0"
         style="display:inline;fill:url(#radialGradient4428-3);fill-opacity:1;fill-rule:nonzero;stroke:none"
         d="m 762.06153,398.97041 c -3e-5,-34.39053 -27.87816,-62.26866 -62.26867,-62.26867 -34.39118,6.6e-4 -62.26933,27.87881 -62.26932,62.26932 0,34.39052 27.87814,62.26865 62.26867,62.26868 34.39046,-5e-5 62.26945,-27.87905 62.26932,-62.26933 z"
         id="path4680-87-5-9-2-4-5" />
      <path
         inkscape:connector-curvature="0"
         style="display:inline;fill:url(#radialGradient4430-7);fill-opacity:1;fill-rule:nonzero;stroke:none"
         d="m 630.57914,524.22594 c -1e-5,-30.95148 -25.09033,-56.0418 -56.04182,-56.04181 -30.95204,5.8e-4 -56.04238,25.09092 -56.04238,56.04239 2e-5,30.95147 25.09034,56.04179 56.04181,56.04181 30.95142,-5e-5 56.04251,-25.09114 56.04239,-56.04239 z"
         id="path4680-8-4-2-6-9-1-9" />
    </g>
    <flowRoot
       inkscape:export-ydpi="89"
       inkscape:export-xdpi="89"
       inkscape:export-filename="/home/coruja/siduction/artwork/coruja.web.header.png"
       transform="matrix(0.78055236,0,0,0.76017474,-446.76108,1349.0908)"
       style="font-style:normal;font-weight:bold;font-size:18px;line-height:125%;font-family:Sans;-inkscape-font-specification:'Sans Bold';letter-spacing:0px;word-spacing:0px;fill:#6f7c91;fill-opacity:1;stroke:none"
       id="flowRoot4824-8"
       xml:space="preserve"><flowRegion
         id="flowRegion4826-1"><rect
           style="font-style:normal;font-weight:bold;-inkscape-font-specification:'Sans Bold';fill:#6f7c91"
           y="-107"
           x="33"
           height="25"
           width="255"
           id="rect4828-9" /></flowRegion><flowPara
         id="flowPara4830-9"
         style="font-style:normal;font-variant:normal;font-weight:bold;font-stretch:normal;font-family:'DejaVu Sans';-inkscape-font-specification:'DejaVu Sans Bold'">the community based OS</flowPara></flowRoot>    <path
       inkscape:export-ydpi="89"
       inkscape:export-xdpi="89"
       inkscape:export-filename="/home/coruja/siduction/artwork/coruja.web.header.png"
       sodipodi:nodetypes="ccccc"
       inkscape:connector-curvature="0"
       id="path3876-1-0"
       d="m -592.95276,1265.0418 391.23284,0.024 14.47959,12.8986 32.1847,-33.1719 24.10286,-0.074"
       style="fill:none;stroke:#ff6600;stroke-width:3.08156228;stroke-linecap:butt;stroke-linejoin:miter;stroke-miterlimit:4;stroke-dasharray:none;stroke-opacity:1" />
    <text
       xml:space="preserve"
       style="font-style:normal;font-variant:normal;font-weight:bold;font-stretch:normal;font-size:24.40971947px;line-height:125%;font-family:Sans;-inkscape-font-specification:'Sans Bold';text-align:start;letter-spacing:0px;word-spacing:0px;writing-mode:lr-tb;text-anchor:start;fill:#6f7c91;fill-opacity:1;stroke:none;stroke-width:1.52560747"
       x="-547.16656"
       y="1150.2251"
       id="text24023-0"><tspan
         y="1150.2251"
         x="-547.16656"
         sodipodi:role="line"
         id="tspan6821-5"
         style="font-style:normal;font-variant:normal;font-weight:bold;font-stretch:normal;font-size:23.64691544px;line-height:125%;font-family:Sans;-inkscape-font-specification:'Sans Bold';text-align:start;writing-mode:lr-tb;text-anchor:start;fill:#6f7c91;fill-opacity:1;stroke:none;stroke-width:1.52560747">patience</tspan></text>
    <rect
       style="fill:#ff6600;fill-opacity:1"
       id="rect12621-3-8"
       width="5.0000014"
       height="4.9999504"
       x="212.04724"
       y="721.18109" />
    <rect
       style="fill:#ff6600;fill-opacity:1"
       id="rect12621-3"
       width="5.0000014"
       height="4.9999504"
       x="212.04724"
       y="1326.181" />
    <rect
       style="fill:#ff6600;fill-opacity:1;stroke-width:1.06160378"
       id="rect12621-3-0"
       width="5.3080206"
       height="5.3079662"
       x="-592.95276"
       y="1344.623" />
    <rect
       style="fill:#ff6600;fill-opacity:1"
       id="rect12621-3-6"
       width="5.0000014"
       height="4.9999504"
       x="-592.95276"
       y="721.18115" />
    <rect
       y="-587.95276"
       x="-721.18109"
       height="20"
       width="20"
       id="rect12621-3-7-0-6"
       style="fill:#ff6600;fill-opacity:1"
       transform="rotate(-90)" />
    <rect
       style="fill:#6f7c91;fill-opacity:1"
       id="rect152"
       width="20"
       height="20"
       x="-721.18109"
       y="-567.95276"
       transform="rotate(-90)" />
    <rect
       y="-527.95276"
       x="-721.18109"
       height="20"
       width="20"
       id="rect156"
       style="fill:#162d50;fill-opacity:1"
       transform="rotate(-90)" />
    <rect
       style="fill:#000000;fill-opacity:1"
       id="rect158"
       width="20"
       height="20"
       x="-721.18109"
       y="-507.95276"
       transform="rotate(-90)" />
    <rect
       transform="rotate(-90)"
       y="-547.95276"
       x="-721.18109"
       height="20"
       width="20"
       id="rect157"
       style="fill:#566182;fill-opacity:1" />
  </g>
</svg>
